<svg width="30" height="30" viewBox="0 0 30 30" fill="none" xmlns="http://www.w3.org/2000/svg">
<path fill-rule="evenodd" clip-rule="evenodd" d="M10.3125 4.6875L24.375 4.6875C24.6236 4.6875 24.8621 4.78627 25.0379 4.96209C25.2137 5.1379 25.3125 5.37636 25.3125 5.625V19.6875C25.3125 20.2053 24.8928 20.625 24.375 20.625C23.8572 20.625 23.4375 20.2053 23.4375 19.6875V7.88833L6.28791 25.0379C5.9218 25.404 5.3282 25.404 4.96209 25.0379C4.59597 24.6718 4.59597 24.0782 4.96209 23.7121L22.1117 6.5625L10.3125 6.5625C9.79473 6.5625 9.375 6.14277 9.375 5.625C9.375 5.10723 9.79473 4.6875 10.3125 4.6875Z" fill="white"/>
</svg>
