<svg width="17" height="16" viewBox="0 0 17 16" fill="none" xmlns="http://www.w3.org/2000/svg">
<path d="M6.89715 0.742331C7.47667 -0.246144 8.90565 -0.246145 9.48517 0.74233L11.104 3.50356C11.3155 3.86429 11.668 4.12036 12.0764 4.21003L15.2027 4.89636C16.3219 5.14206 16.7635 6.50111 16.0025 7.35772L13.8766 9.75059C13.5989 10.0632 13.4643 10.4775 13.5052 10.8937L13.8185 14.0791C13.9307 15.2194 12.7746 16.0593 11.7248 15.6003L8.79212 14.3179C8.40899 14.1504 7.97333 14.1504 7.59021 14.3179L4.65753 15.6003C3.60768 16.0593 2.45161 15.2194 2.56378 14.0791L2.87712 10.8937C2.91806 10.4775 2.78343 10.0632 2.50571 9.75059L0.379874 7.35772C-0.38114 6.50111 0.060439 5.14206 1.17961 4.89636L4.30595 4.21003C4.71437 4.12036 5.06683 3.86429 5.27832 3.50356L6.89715 0.742331Z" fill="#FFCE22"/>
</svg>
